<svg viewBox="0 0 25 25" fill="none" xmlns="http://www.w3.org/2000/svg">
    <path fill-rule="evenodd" clip-rule="evenodd" d="M15.625 5.46875C15.625 5.26155 15.5427 5.06284 15.3962 4.91632C15.2497 4.76981 15.051 4.6875 14.8438 4.6875H2.34375C2.13655 4.6875 1.93784 4.76981 1.79132 4.91632C1.64481 5.06284 1.5625 5.26155 1.5625 5.46875V19.5312C1.5625 19.7385 1.64481 19.9372 1.79132 20.0837C1.93784 20.2302 2.13655 20.3125 2.34375 20.3125H14.8438C15.051 20.3125 15.2497 20.2302 15.3962 20.0837C15.5427 19.9372 15.625 19.7385 15.625 19.5312V16.4062C15.625 16.199 15.7073 16.0003 15.8538 15.8538C16.0003 15.7073 16.199 15.625 16.4062 15.625C16.6135 15.625 16.8122 15.7073 16.9587 15.8538C17.1052 16.0003 17.1875 16.199 17.1875 16.4062V19.5312C17.1875 20.1529 16.9406 20.749 16.501 21.1885C16.0615 21.6281 15.4654 21.875 14.8438 21.875H2.34375C1.72215 21.875 1.12601 21.6281 0.686468 21.1885C0.24693 20.749 0 20.1529 0 19.5312L0 5.46875C0 4.84715 0.24693 4.25101 0.686468 3.81147C1.12601 3.37193 1.72215 3.125 2.34375 3.125H14.8438C15.4654 3.125 16.0615 3.37193 16.501 3.81147C16.9406 4.25101 17.1875 4.84715 17.1875 5.46875V8.59375C17.1875 8.80095 17.1052 8.99966 16.9587 9.14618C16.8122 9.29269 16.6135 9.375 16.4062 9.375C16.199 9.375 16.0003 9.29269 15.8538 9.14618C15.7073 8.99966 15.625 8.80095 15.625 8.59375V5.46875Z" fill="white"/>
    <path fill-rule="evenodd" clip-rule="evenodd" d="M6.47806 13.053C6.4053 12.9804 6.34758 12.8942 6.30819 12.7993C6.26881 12.7044 6.24854 12.6026 6.24854 12.4998C6.24854 12.3971 6.26881 12.2953 6.30819 12.2004C6.34758 12.1055 6.4053 12.0193 6.47806 11.9467L11.1656 7.25922C11.3123 7.11252 11.5112 7.03011 11.7187 7.03011C11.9261 7.03011 12.1251 7.11252 12.2718 7.25922C12.4185 7.40592 12.5009 7.60488 12.5009 7.81234C12.5009 8.0198 12.4185 8.21877 12.2718 8.36547L8.91712 11.7186H22.6562C22.8634 11.7186 23.0621 11.8009 23.2086 11.9474C23.3551 12.0939 23.4374 12.2926 23.4374 12.4998C23.4374 12.707 23.3551 12.9058 23.2086 13.0523C23.0621 13.1988 22.8634 13.2811 22.6562 13.2811H8.91712L12.2718 16.6342C12.3444 16.7069 12.4021 16.7931 12.4414 16.888C12.4807 16.9829 12.5009 17.0846 12.5009 17.1873C12.5009 17.2901 12.4807 17.3918 12.4414 17.4867C12.4021 17.5816 12.3444 17.6678 12.2718 17.7405C12.1992 17.8131 12.1129 17.8707 12.018 17.91C11.9231 17.9493 11.8214 17.9696 11.7187 17.9696C11.616 17.9696 11.5142 17.9493 11.4193 17.91C11.3244 17.8707 11.2382 17.8131 11.1656 17.7405L6.47806 13.053Z" fill="white"/>
</svg>
