<svg viewBox="0 0 72 72" fill="none" xmlns="http://www.w3.org/2000/svg">
    <g id="person-plus">
    <path id="Vector" fill-rule="evenodd" clip-rule="evenodd" d="M36 22.5C36 24.8869 35.0518 27.1761 33.364 28.864C31.6761 30.5518 29.3869 31.5 27 31.5C24.6131 31.5 22.3239 30.5518 20.636 28.864C18.9482 27.1761 18 24.8869 18 22.5C18 20.1131 18.9482 17.8239 20.636 16.136C22.3239 14.4482 24.6131 13.5 27 13.5C29.3869 13.5 31.6761 14.4482 33.364 16.136C35.0518 17.8239 36 20.1131 36 22.5ZM27 36C30.5804 36 34.0142 34.5777 36.5459 32.0459C39.0777 29.5142 40.5 26.0804 40.5 22.5C40.5 18.9196 39.0777 15.4858 36.5459 12.9541C34.0142 10.4223 30.5804 9 27 9C23.4196 9 19.9858 10.4223 17.4541 12.9541C14.9223 15.4858 13.5 18.9196 13.5 22.5C13.5 26.0804 14.9223 29.5142 17.4541 32.0459C19.9858 34.5777 23.4196 36 27 36ZM54 58.5C54 63 49.5 63 49.5 63H4.5C4.5 63 0 63 0 58.5C0 54 4.5 40.5 27 40.5C49.5 40.5 54 54 54 58.5ZM49.5 58.482C49.4955 57.375 48.807 54.045 45.756 50.994C42.822 48.06 37.3005 45 27 45C16.695 45 11.178 48.06 8.244 50.994C5.193 54.045 4.509 57.375 4.5 58.482H49.5ZM60.75 22.5C61.3467 22.5 61.919 22.7371 62.341 23.159C62.7629 23.581 63 24.1533 63 24.75V31.5H69.75C70.3467 31.5 70.919 31.7371 71.341 32.159C71.7629 32.581 72 33.1533 72 33.75C72 34.3467 71.7629 34.919 71.341 35.341C70.919 35.7629 70.3467 36 69.75 36H63V42.75C63 43.3467 62.7629 43.919 62.341 44.341C61.919 44.7629 61.3467 45 60.75 45C60.1533 45 59.581 44.7629 59.159 44.341C58.7371 43.919 58.5 43.3467 58.5 42.75V36H51.75C51.1533 36 50.581 35.7629 50.159 35.341C49.7371 34.919 49.5 34.3467 49.5 33.75C49.5 33.1533 49.7371 32.581 50.159 32.159C50.581 31.7371 51.1533 31.5 51.75 31.5H58.5V24.75C58.5 24.1533 58.7371 23.581 59.159 23.159C59.581 22.7371 60.1533 22.5 60.75 22.5Z" fill="white"/>
    </g>
</svg>
