<svg viewBox="0 0 72 72" fill="none" xmlns="http://www.w3.org/2000/svg">
    <g clip-path="url(#clip0_208_38)">
        <path fill-rule="evenodd" clip-rule="evenodd" d="M36 22.5C36 24.8869 35.0518 27.1761 33.364 28.864C31.6761 30.5518 29.3869 31.5 27 31.5C24.6131 31.5 22.3239 30.5518 20.636 28.864C18.9482 27.1761 18 24.8869 18 22.5C18 20.1131 18.9482 17.8239 20.636 16.136C22.3239 14.4482 24.6131 13.5 27 13.5C29.3869 13.5 31.6761 14.4482 33.364 16.136C35.0518 17.8239 36 20.1131 36 22.5ZM27 36C30.5804 36 34.0142 34.5777 36.5459 32.0459C39.0777 29.5142 40.5 26.0804 40.5 22.5C40.5 18.9196 39.0777 15.4858 36.5459 12.9541C34.0142 10.4223 30.5804 9 27 9C23.4196 9 19.9858 10.4223 17.4541 12.9541C14.9223 15.4858 13.5 18.9196 13.5 22.5C13.5 26.0804 14.9223 29.5142 17.4541 32.0459C19.9858 34.5777 23.4196 36 27 36ZM54 58.5C54 63 49.5 63 49.5 63H4.5C4.5 63 0 63 0 58.5C0 54 4.5 40.5 27 40.5C49.5 40.5 54 54 54 58.5ZM49.5 58.482C49.4955 57.375 48.807 54.045 45.756 50.994C42.822 48.06 37.3005 45 27 45C16.695 45 11.178 48.06 8.244 50.994C5.193 54.045 4.509 57.375 4.5 58.482H49.5ZM71.343 23.157C71.5525 23.366 71.7188 23.6143 71.8322 23.8876C71.9456 24.161 72.004 24.454 72.004 24.75C72.004 25.046 71.9456 25.339 71.8322 25.6124C71.7188 25.8857 71.5525 26.134 71.343 26.343L57.843 39.843C57.634 40.0525 57.3857 40.2188 57.1124 40.3322C56.839 40.4456 56.546 40.504 56.25 40.504C55.954 40.504 55.661 40.4456 55.3876 40.3322C55.1143 40.2188 54.866 40.0525 54.657 39.843L47.907 33.093C47.4845 32.6705 47.2472 32.0975 47.2472 31.5C47.2472 30.9025 47.4845 30.3295 47.907 29.907C48.3295 29.4845 48.9025 29.2472 49.5 29.2472C50.0975 29.2472 50.6705 29.4845 51.093 29.907L56.25 35.0685L68.157 23.157C68.366 22.9475 68.6143 22.7812 68.8876 22.6678C69.161 22.5544 69.454 22.496 69.75 22.496C70.046 22.496 70.339 22.5544 70.6124 22.6678C70.8857 22.7812 71.134 22.9475 71.343 23.157Z" fill="white"/>
    </g>
    <defs>
        <clipPath id="clip0_208_38">
            <rect width="72" height="72" fill="white"/>
        </clipPath>
    </defs>
</svg>
